<svg width="20" height="21" viewBox="0 0 20 21" fill="none" xmlns="http://www.w3.org/2000/svg">
<mask id="mask0_5_16" style="mask-type:luminance" maskUnits="userSpaceOnUse" x="0" y="0" width="20" height="21">
<path d="M20 0.5H0V20.5H20V0.5Z" fill="white"/>
</mask>
<g mask="url(#mask0_5_16)">
<path d="M10 2.16675C9.17591 2.16675 8.37033 2.41112 7.68512 2.86896C6.99992 3.3268 6.46587 3.97754 6.1505 4.7389C5.83514 5.50026 5.75262 6.33804 5.91339 7.14629C6.07417 7.95454 6.471 8.69697 7.05372 9.27969C7.63644 9.86241 8.37887 10.2592 9.18712 10.42C9.99538 10.5808 10.8332 10.4983 11.5945 10.1829C12.3559 9.86755 13.0066 9.33349 13.4645 8.64829C13.9223 7.96308 14.1667 7.1575 14.1667 6.33341C14.1667 5.22834 13.7277 4.16854 12.9463 3.38713C12.1649 2.60573 11.1051 2.16675 10 2.16675ZM10 8.83341C9.50555 8.83341 9.0222 8.68679 8.61107 8.41209C8.19995 8.13738 7.87952 7.74694 7.6903 7.29012C7.50108 6.83331 7.45157 6.33064 7.54804 5.84569C7.6445 5.36073 7.8826 4.91528 8.23223 4.56565C8.58186 4.21601 9.02732 3.97791 9.51227 3.88145C9.99723 3.78499 10.4999 3.8345 10.9567 4.02371C11.4135 4.21293 11.804 4.53336 12.0787 4.94449C12.3534 5.35561 12.5 5.83896 12.5 6.33341C12.5 6.99645 12.2366 7.63234 11.7678 8.10118C11.2989 8.57002 10.663 8.83341 10 8.83341ZM17.5 18.0001V17.1667C17.5 15.6196 16.8854 14.1359 15.7915 13.0419C14.6975 11.948 13.2138 11.3334 11.6667 11.3334H8.33333C6.78624 11.3334 5.30251 11.948 4.20854 13.0419C3.11458 14.1359 2.5 15.6196 2.5 17.1667V18.0001H4.16667V17.1667C4.16667 16.0617 4.60565 15.0019 5.38705 14.2204C6.16846 13.439 7.22826 13.0001 8.33333 13.0001H11.6667C12.7717 13.0001 13.8315 13.439 14.6129 14.2204C15.3943 15.0019 15.8333 16.0617 15.8333 17.1667V18.0001H17.5Z" fill="url(#paint0_linear_5_16)"/>
</g>
<defs>
<linearGradient id="paint0_linear_5_16" x1="14.9597" y1="7.44452" x2="0.5" y2="12" gradientUnits="userSpaceOnUse">
<stop stop-color="#0E4A98"/>
<stop offset="1" stop-color="#1634D2"/>
</linearGradient>
</defs>
</svg>
