<svg width="26" height="24" viewBox="0 0 26 24" fill="none" xmlns="http://www.w3.org/2000/svg">
<path d="M23.4955 10.4946C22.7517 10.4946 22.134 11.0383 22.014 11.7491H19.8732C20.3951 10.892 20.7706 9.94015 20.7706 8.77775C20.7706 7.99019 20.6521 7.22973 20.4335 6.51267L21.9726 4.97217C22.2323 5.15658 22.5354 5.25293 22.8409 5.25293C23.2262 5.25293 23.6113 5.10615 23.9046 4.81285C24.4909 4.22601 24.4909 3.27085 23.9046 2.68401C23.3177 2.09691 22.3639 2.09716 21.7776 2.68401C21.4933 2.96827 21.3369 3.34637 21.3369 3.74856C21.3369 4.06569 21.4354 4.36701 21.6159 4.61992L20.2507 5.98629C19.1275 3.0729 16.3016 1 12.9997 1C9.69788 1 6.87203 3.0729 5.74851 5.98604L4.38334 4.61967C4.56383 4.36676 4.66234 4.06544 4.66234 3.74831C4.66234 3.34612 4.50592 2.96827 4.22166 2.68376C3.63483 2.09666 2.68102 2.09691 2.09469 2.68376C1.50837 3.27085 1.50837 4.22576 2.09469 4.8126C2.38798 5.1059 2.77301 5.25267 3.15805 5.25267C3.46362 5.25267 3.76694 5.15658 4.02663 4.97192L5.56577 6.51242C5.34743 7.22973 5.22886 7.98994 5.22886 8.77775C5.22886 9.94015 5.60437 10.8923 6.12628 11.7491H3.98552C3.8657 11.0383 3.24804 10.4946 2.50404 10.4946C1.67456 10.4946 1 11.1698 1 12C1 12.8302 1.67456 13.5054 2.50404 13.5054C3.24779 13.5054 3.86545 12.9617 3.98552 12.2509H6.45341C6.74268 12.6676 7.05778 13.0661 7.37012 13.46C7.77395 13.969 8.18581 14.4949 8.54628 15.0572L6.14232 17.463C5.55499 17.0455 4.73579 17.0964 4.21038 17.6223C3.6238 18.2092 3.6238 19.1643 4.21038 19.7512C4.50367 20.0445 4.8887 20.1912 5.27374 20.1912C5.65902 20.1912 6.04406 20.0445 6.33734 19.7512C6.86326 19.225 6.91364 18.4049 6.49677 17.8175L8.80974 15.5027C8.96917 15.9215 9.00551 17.0297 8.98922 17.6778C8.98897 17.6878 8.99323 17.6963 8.99423 17.7061C8.99298 17.7151 8.98897 17.7224 8.98897 17.7312V20.2402C8.98897 20.2728 8.99574 20.3054 9.00827 20.336C9.02106 20.3669 9.03936 20.3945 9.06267 20.4178L10.2463 21.6023C10.3017 22.3823 10.9532 23 11.7464 23H14.2531C15.0462 23 15.698 22.3823 15.7531 21.6023L16.9368 20.4178C16.9601 20.3947 16.9784 20.3669 16.9912 20.336C17.004 20.3054 17.0105 20.2728 17.0105 20.2402V17.7312C17.0105 17.7224 17.0065 17.7149 17.0055 17.7064C17.0065 17.6966 17.0108 17.688 17.0105 17.678C16.9942 17.0299 17.0306 15.9217 17.19 15.503L19.503 17.8178C19.0859 18.4051 19.1365 19.2253 19.6624 19.7514C19.9557 20.0447 20.3407 20.1915 20.7258 20.1915C21.111 20.1915 21.4961 20.0447 21.7894 19.7514C22.3759 19.1646 22.3759 18.2094 21.7894 17.6226C21.2632 17.0962 20.444 17.046 19.8574 17.463L17.4537 15.0572C17.8142 14.4949 18.226 13.969 18.6299 13.46C18.9422 13.0661 19.2573 12.6676 19.5466 12.2509H22.0145C22.1343 12.9617 22.752 13.5054 23.496 13.5054C24.3254 13.5054 25 12.8302 25 12C25 11.1698 24.3249 10.4946 23.4955 10.4946ZM22.132 3.03852C22.5233 2.64763 23.1591 2.64713 23.5501 3.03852C23.9409 3.42992 23.9409 4.06669 23.5501 4.45784C23.1588 4.84873 22.5231 4.84923 22.132 4.45784C21.9425 4.26816 21.8383 4.01626 21.8383 3.74806C21.8383 3.47985 21.9425 3.2282 22.132 3.03852ZM2.4494 4.45784C2.05859 4.06644 2.05859 3.42992 2.4494 3.03852C2.64492 2.84308 2.90186 2.74523 3.15855 2.74523C3.41499 2.74523 3.67193 2.84308 3.86746 3.03852C4.05697 3.2282 4.16125 3.4801 4.16125 3.74831C4.16125 4.01651 4.05697 4.26841 3.86746 4.45809C3.47666 4.84898 2.84095 4.84949 2.4494 4.45784ZM2.50404 13.0036C1.95106 13.0036 1.50135 12.5535 1.50135 12C1.50135 11.4465 1.95106 10.9964 2.50404 10.9964C3.05703 10.9964 3.50674 11.4465 3.50674 12C3.50674 12.5535 3.05703 13.0036 2.50404 13.0036ZM15.4027 21.2437H10.5968L9.84477 20.491H16.1547L15.4027 21.2437ZM16.5092 19.9893H9.49032V17.9821H16.5092V19.9893ZM5.98289 19.3966C5.59184 19.7875 4.95613 19.7878 4.56483 19.3966C4.17378 19.0052 4.17378 18.3685 4.56483 17.9773C4.76036 17.7816 5.01705 17.684 5.27399 17.684C5.53043 17.684 5.78737 17.7819 5.98289 17.9773C6.37369 18.3687 6.37369 19.0055 5.98289 19.3966ZM14.2531 22.4982H11.7464C11.2804 22.4982 10.8913 22.1771 10.7793 21.7455H15.2202C15.1082 22.1773 14.7191 22.4982 14.2531 22.4982ZM21.4347 17.9773C21.8257 18.3687 21.8257 19.0055 21.4347 19.3966C21.0436 19.7875 20.4079 19.7878 20.0166 19.3966C19.6256 19.0052 19.6256 18.3685 20.0166 17.9773C20.4077 17.5864 21.0434 17.5859 21.4347 17.9773ZM18.2371 13.1481C17.7357 13.7804 17.2176 14.4339 16.7934 15.1698C16.5217 15.6412 16.5024 16.9509 16.5062 17.4803H9.49333C9.49709 16.9509 9.47778 15.641 9.20605 15.1698C8.78216 14.4339 8.26377 13.7804 7.76242 13.1481C6.71737 11.8299 5.73021 10.585 5.73021 8.77775C5.73021 4.76569 8.99148 1.50179 12.9997 1.50179C17.008 1.50179 20.2693 4.76569 20.2693 8.77775C20.2693 10.585 19.2821 11.8299 18.2371 13.1481ZM23.4955 13.0036C22.9425 13.0036 22.4928 12.5535 22.4928 12C22.4928 11.4465 22.9425 10.9964 23.4955 10.9964C24.0484 10.9964 24.4982 11.4465 24.4982 12C24.4982 12.5535 24.0484 13.0036 23.4955 13.0036Z" fill="#E1048D" stroke="url(#paint0_linear_547_248)" stroke-width="0.5"/>
<defs>
<linearGradient id="paint0_linear_547_248" x1="1" y1="12" x2="25.4993" y2="12.1319" gradientUnits="userSpaceOnUse">
<stop stop-color="#1733D6"/>
<stop offset="1" stop-color="#0F4B99"/>
</linearGradient>
</defs>
</svg>
