<svg width="24" height="29" viewBox="0 0 24 29" fill="none" xmlns="http://www.w3.org/2000/svg">
<g clip-path="url(#clip0_8_49)">
<path d="M2.66667 24.6667H8L12 28.6667L16 24.6667H21.3333C22.8 24.6667 24 23.4667 24 22.0001V3.33341C24 1.86675 22.8 0.666748 21.3333 0.666748H2.66667C1.2 0.666748 0 1.86675 0 3.33341V22.0001C0 23.4667 1.2 24.6667 2.66667 24.6667ZM2.66667 3.33341H21.3333V22.0001H14.8933L14.1067 22.7867L12 24.8934L9.88 22.7734L9.10667 22.0001H2.66667V3.33341ZM12 20.6667L14.5067 15.1734L20 12.6667L14.5067 10.1601L12 4.66675L9.49333 10.1601L4 12.6667L9.49333 15.1734L12 20.6667Z" fill="url(#paint0_linear_8_49)"/>
</g>
<defs>
<linearGradient id="paint0_linear_8_49" x1="29.5" y1="8.5" x2="-5.5" y2="15" gradientUnits="userSpaceOnUse">
<stop stop-color="#0E4A98"/>
<stop offset="1" stop-color="#1533D2"/>
</linearGradient>
<clipPath id="clip0_8_49">
<rect width="24" height="29" fill="white"/>
</clipPath>
</defs>
</svg>
