<svg width="32" height="21" viewBox="0 0 32 21" fill="none" xmlns="http://www.w3.org/2000/svg">
<path d="M22.51 1.73272C17.8463 2.66778 13.9675 3.42968 13.8982 3.40659C13.8405 3.38351 13.321 2.76013 12.7439 2.02132L11.7164 0.682224H11.0007H10.2734L10.5736 1.34023C10.7352 1.70964 11.2662 2.91021 11.7395 4.00688C12.2244 5.10355 12.6746 5.98089 12.7439 5.95781C12.8131 5.93472 17.0036 4.78032 22.0483 3.39505C27.093 2.00978 31.2719 0.832296 31.3181 0.797664C31.3989 0.7284 31.1103 -0.0335 31.0179 0.00113178C31.0064 0.0126757 27.1738 0.78612 22.51 1.73272Z" fill="white"/>
<path d="M-0.000614166 2.47169V4.261H2.94309H5.8868V12.5726V20.8843H8.02243H10.1581V10.7833V0.682379H5.07872H-0.000614166V2.47169Z" fill="white"/>
</svg>
