<svg width="6" height="6" viewBox="0 0 6 6" fill="none" xmlns="http://www.w3.org/2000/svg">
<path d="M5.85262 2.56509H4.09103C3.99037 2.56509 3.91367 2.66028 3.94962 2.74882L4.37384 3.7627C4.39302 3.80697 4.35467 3.85567 4.30194 3.85346L3.76028 3.82247C3.73631 3.82026 3.71235 3.83132 3.69797 3.85125L3.27614 4.40246C3.25457 4.43345 3.20903 4.44452 3.17308 4.42238L2.54993 4.03056C2.52597 4.01506 2.49241 4.01506 2.46845 4.03056L1.60562 4.5707C1.5505 4.60612 1.4762 4.55742 1.49537 4.49765L1.73505 3.70293C1.74463 3.66972 1.72786 3.63652 1.69191 3.62324L1.23413 3.45057C1.18859 3.43286 1.17421 3.38194 1.20537 3.34652L1.61042 2.88607C1.62959 2.86394 1.63199 2.83073 1.61281 2.80638L1.27248 2.35257C1.24132 2.31051 1.27008 2.25296 1.3276 2.24853L1.85488 2.2109C1.89323 2.20868 1.92439 2.17769 1.92199 2.14006L1.88125 1.45824C1.87885 1.40954 1.93158 1.37412 1.98191 1.39183L2.63622 1.64198C2.66498 1.65304 2.69853 1.6464 2.7177 1.62427L3.16829 1.15939C3.20424 1.12176 3.26895 1.13282 3.29052 1.1771L3.56135 1.82128C3.5973 1.90098 3.70516 1.92976 3.78185 1.87663L4.8412 1.14832C4.96104 1.06641 4.88434 0.889317 4.73575 0.90924L4.0383 0.995575C4.00475 1 3.97359 0.982292 3.96161 0.953514L3.59491 0.0835302C3.55416 -0.00723147 3.42714 -0.0293685 3.35523 0.0436836L2.55712 0.842829C2.53555 0.862753 2.5044 0.869394 2.47564 0.858325L1.42587 0.448791C1.3324 0.413372 1.22934 0.473141 1.22454 0.568331L1.1862 1.56892C1.1838 1.60434 1.15504 1.63091 1.11909 1.63312L0.160398 1.69068C0.0477521 1.69732 -0.0121661 1.81464 0.0501488 1.89876L0.687678 2.76653C0.706852 2.79089 0.704455 2.82409 0.682884 2.84844L0.0357684 3.53469C-0.0289432 3.60331 -0.00257917 3.70957 0.0884964 3.74499L0.831481 4.04163C0.865036 4.05491 0.881813 4.08811 0.872226 4.11911L0.397674 5.83251C0.36412 5.95426 0.512717 6.04724 0.622966 5.97419L2.40613 4.79207C2.4301 4.77657 2.46365 4.77436 2.49002 4.79207L3.30251 5.31893C3.36961 5.3632 3.46069 5.3455 3.50623 5.28351L4.01433 4.56406C4.02871 4.54192 4.05747 4.53085 4.08384 4.53528L5.29898 4.67032C5.39724 4.6836 5.49551 4.60833 5.45956 4.52421L4.95385 3.31553C4.93947 3.28233 4.95385 3.24691 4.99699 3.22698L5.91973 2.82409C6.05634 2.75989 6.00841 2.56509 5.85262 2.56509Z" fill="#8039E9"/>
</svg>
