<svg width="49" height="48" viewBox="0 0 49 48" fill="none" xmlns="http://www.w3.org/2000/svg">
<path d="M26.0066 24C26.0066 24.7364 25.4096 25.3333 24.6732 25.3333C23.9368 25.3333 23.3398 24.7364 23.3398 24C23.3398 23.2637 23.9368 22.6667 24.6732 22.6667C25.4096 22.6667 26.0066 23.2637 26.0066 24Z" fill="#143AC2"/>
<path fill-rule="evenodd" clip-rule="evenodd" d="M44.5663 19.661C45.4933 20.9119 45.9966 22.4378 46 24.0076C45.9949 25.5761 45.491 27.1003 44.5641 28.3496C43.6372 29.5989 42.3379 30.5055 40.8628 30.9321C41.6187 32.3018 41.9153 33.8868 41.7075 35.445C41.4996 37.0034 40.7987 38.4492 39.7116 39.5613C38.6247 40.6734 37.2116 41.3907 35.6885 41.6033C34.1655 41.816 32.6162 41.5124 31.2778 40.739C30.8646 42.2524 29.9787 43.586 28.7552 44.5358C27.5317 45.4858 26.0383 46 24.5025 46C22.9666 46 21.473 45.4858 20.2495 44.5358C19.0261 43.586 18.1401 42.2524 17.7269 40.739C16.3895 41.5098 14.8423 41.8114 13.3216 41.5978C11.8011 41.3841 10.3906 40.6669 9.30575 39.5559C8.21694 38.4463 7.51356 37.0022 7.30336 35.4447C7.09315 33.8872 7.38773 32.3021 8.14198 30.9321C6.66281 30.5094 5.35951 29.603 4.43105 28.3512C3.5026 27.0994 3 25.5714 3 24.0001C3 22.4287 3.5026 20.9005 4.43105 19.6487C5.35951 18.3971 6.66281 17.4906 8.14198 17.0677C7.38606 15.6983 7.08936 14.1132 7.29724 12.5549C7.50513 10.9965 8.20615 9.55088 9.29308 8.43868C10.38 7.32663 11.7931 6.60938 13.3162 6.39669C14.8392 6.18401 16.3885 6.48758 17.7269 7.26098C18.1401 5.74758 19.0261 4.4141 20.2495 3.46417C21.473 2.51422 22.9666 2 24.5025 2C26.0383 2 27.5317 2.51422 28.7552 3.46417C29.9787 4.4141 30.8646 5.74758 31.2778 7.26098C32.617 6.48535 34.1678 6.18039 35.6925 6.39282C37.2174 6.60526 38.632 7.32338 39.7196 8.43709C40.8074 9.55088 41.5082 10.9988 41.7147 12.559C41.9212 14.1193 41.6219 15.7058 40.8628 17.0752C42.3391 17.5024 43.6392 18.4102 44.5663 19.661ZM6.53794 20.6387C5.69978 21.5511 5.23177 22.7553 5.22869 24.0076C5.23177 25.2598 5.69978 26.4639 6.53794 27.3765C7.37611 28.289 8.52183 28.8414 9.74319 28.9223L14.5467 24.0076L9.74319 19.0928C8.52183 19.1736 7.37611 19.7261 6.53794 20.6387ZM14.1275 39.3853C15.3514 39.4248 16.5436 38.9838 17.4601 38.1526V31.2052H10.6698C9.8575 32.1429 9.42651 33.3628 9.4651 34.6149C9.50368 35.8673 10.0089 37.0569 10.8774 37.9404C11.7407 38.8289 12.9034 39.3458 14.1275 39.3853ZM12.8714 28.93H17.4601V26.9884L16.1183 25.6078L12.8714 28.93ZM16.1183 22.3921L17.4601 21.0192V19.0702H12.8714L16.1183 22.3921ZM10.6698 16.7947H17.4601V9.84724C16.5422 9.01969 15.3505 8.58101 14.1276 8.62048C12.9048 8.65996 11.7426 9.17453 10.8775 10.0598C10.0123 10.9449 9.50924 12.134 9.47066 13.3852C9.43218 14.6363 9.86095 15.8555 10.6698 16.7947ZM27.7952 5.62741C26.9033 4.76983 25.7263 4.29102 24.5025 4.28785C23.2797 4.29088 22.1037 4.76866 21.2121 5.62464C20.3203 6.48062 19.7796 7.65097 19.6989 8.89921L24.5025 13.8141L29.3061 8.90684C29.227 7.65721 28.6869 6.48497 27.7952 5.62741ZM27.1451 19.9696C26.3625 19.436 25.4428 19.1521 24.5025 19.1536V19.1459C23.2435 19.148 22.0367 19.661 21.1473 20.5726C20.2576 21.4841 19.758 22.7195 19.758 24.0076C19.7566 24.9697 20.0342 25.9108 20.5557 26.7115C21.0773 27.5121 21.8193 28.1363 22.688 28.5053C23.5565 28.8743 24.5126 28.9711 25.4349 28.7838C26.3574 28.5965 27.2047 28.1332 27.8698 27.4529C28.5348 26.7725 28.9874 25.9056 29.1706 24.9618C29.3537 24.0179 29.2589 23.0399 28.8984 22.1511C28.5378 21.2625 27.9277 20.5033 27.1451 19.9696ZM22.9308 15.4219L19.6839 12.0998V16.7947H21.5817L22.9308 15.4219ZM21.5891 31.2052H19.6839V35.9L22.9308 32.578L21.5891 31.2052ZM21.2097 42.3878C22.1014 43.2453 23.2784 43.7242 24.5025 43.7274C25.7263 43.7242 26.9033 43.2453 27.7952 42.3878C28.6869 41.5302 29.227 40.358 29.3061 39.1083L24.5025 34.1935L19.6989 39.1083C19.7777 40.358 20.3178 41.5302 21.2097 42.3878ZM26.0739 32.578L29.3208 35.9077V31.2052H27.4156L26.0739 32.578ZM27.423 16.8022H29.3208V12.0998L26.0739 15.4295L27.423 16.8022ZM34.8771 8.62811C33.6542 8.58863 32.4626 9.02732 31.5446 9.85486V16.8022H38.3349C39.1438 15.8632 39.5726 14.6439 39.534 13.3927C39.4955 12.1415 38.9924 10.9524 38.1273 10.0674C37.2622 9.18215 36.0999 8.66747 34.8771 8.62811ZM36.1333 19.0777H31.5446V21.0192L32.8864 22.3996L36.1333 19.0777ZM32.8864 25.6154L31.5446 26.9959V28.9375H36.1333L32.8864 25.6154ZM34.8787 39.3938C36.102 39.3529 37.2641 38.8358 38.1274 37.9479V37.9404C38.9958 37.0569 39.501 35.8673 39.5397 34.6149C39.5782 33.3628 39.1472 32.1429 38.3349 31.2052H31.5446V38.1678C32.4628 38.9962 33.6553 39.4347 34.8787 39.3938ZM34.458 24.0076L39.2616 28.9223V28.9526C40.5395 28.9526 41.7651 28.4332 42.6687 27.5088C43.5723 26.5843 44.08 25.3303 44.08 24.0227C44.08 22.7153 43.5723 21.4613 42.6687 20.5367C41.7651 19.6123 40.5395 19.0928 39.2616 19.0928L34.458 24.0076Z" fill="#143AC2" stroke="white"/>
</svg>
