<svg width="17" height="17" viewBox="0 0 17 17" fill="none" xmlns="http://www.w3.org/2000/svg">
<path d="M15.7926 8.70712C15.8415 8.84534 15.9376 8.96183 16.0641 9.03601C16.1905 9.11019 16.3391 9.13728 16.4836 9.11249C16.6281 9.0877 16.7592 9.01262 16.8537 8.90054C16.9482 8.78845 17 8.64656 17 8.49996C17 8.35335 16.9482 8.21147 16.8537 8.09938C16.7592 7.98729 16.6281 7.91222 16.4836 7.88743C16.3391 7.86264 16.1905 7.88972 16.0641 7.9639C15.9376 8.03808 15.8415 8.15458 15.7926 8.2928H12.8294C12.8091 7.86859 12.7261 7.44972 12.583 7.04984H13.6127C13.8586 7.05033 14.1022 7.00202 14.3293 6.9077C14.5564 6.81338 14.7626 6.67493 14.9358 6.50036L16.1076 5.32809C16.1898 5.36927 16.2802 5.39131 16.3721 5.39255C16.495 5.39255 16.6151 5.3561 16.7173 5.28782C16.8195 5.21953 16.8992 5.12246 16.9462 5.0089C16.9933 4.89534 17.0056 4.77038 16.9816 4.64983C16.9576 4.52927 16.8984 4.41854 16.8115 4.33162C16.7246 4.2447 16.6139 4.18551 16.4933 4.16153C16.3727 4.13755 16.2478 4.14986 16.1342 4.1969C16.0207 4.24394 15.9236 4.32359 15.8553 4.4258C15.787 4.528 15.7506 4.64816 15.7506 4.77107C15.7518 4.8628 15.7737 4.95307 15.8146 5.03516L14.6428 6.20744C14.5079 6.34336 14.3474 6.45117 14.1706 6.52465C13.9938 6.59813 13.8042 6.63581 13.6127 6.63552H12.414C12.1962 6.17287 11.8987 5.75214 11.5351 5.39255H12.478C12.5269 5.53077 12.6231 5.64727 12.7495 5.72145C12.876 5.79563 13.0246 5.82272 13.1691 5.79792C13.3136 5.77313 13.4446 5.69806 13.5391 5.58597C13.6336 5.47388 13.6855 5.332 13.6855 5.18539C13.6855 5.03879 13.6336 4.8969 13.5391 4.78482C13.4446 4.67273 13.3136 4.59765 13.1691 4.57286C13.0246 4.54807 12.876 4.57516 12.7495 4.64934C12.6231 4.72352 12.5269 4.84001 12.478 4.97823H11.0331C10.8224 4.82775 10.5986 4.69647 10.3644 4.58595V3.38724C10.3642 3.19576 10.4019 3.00612 10.4753 2.8293C10.5488 2.65248 10.6566 2.49197 10.7925 2.35708L11.9644 1.1848C12.0465 1.22602 12.137 1.24809 12.2289 1.24935C12.3518 1.24935 12.4719 1.2129 12.5741 1.14461C12.6763 1.07632 12.756 0.979258 12.803 0.865697C12.8501 0.752137 12.8624 0.627178 12.8384 0.506622C12.8144 0.386067 12.7552 0.275329 12.6683 0.188414C12.5814 0.101498 12.4707 0.0423077 12.3501 0.0183278C12.2296 -0.00565221 12.1046 0.00665518 11.991 0.0536936C11.8775 0.100732 11.7804 0.180389 11.7121 0.282591C11.6438 0.384793 11.6074 0.50495 11.6074 0.627867C11.6086 0.719594 11.6305 0.809866 11.6714 0.891955L10.4996 2.06423C10.3251 2.23747 10.1866 2.4436 10.0923 2.67069C9.998 2.89779 9.94967 3.14134 9.95012 3.38724V4.41691C9.55023 4.27387 9.13137 4.19085 8.70716 4.17056V1.20742C8.84538 1.15855 8.96187 1.06239 9.03605 0.935939C9.11023 0.809486 9.13732 0.660881 9.11253 0.516387C9.08774 0.371894 9.01266 0.240816 8.90058 0.146322C8.78849 0.0518273 8.6466 0 8.5 0C8.3534 0 8.21151 0.0518273 8.09942 0.146322C7.98734 0.240816 7.91226 0.371894 7.88747 0.516387C7.86268 0.660881 7.88977 0.809486 7.96395 0.935939C8.03813 1.06239 8.15462 1.15855 8.29284 1.20742V4.17056C7.86863 4.19085 7.44977 4.27387 7.04989 4.41691V3.38724C7.05035 3.14133 7.00202 2.89776 6.9077 2.67065C6.81338 2.44354 6.67495 2.23739 6.50042 2.06415L5.32856 0.891955C5.36951 0.809866 5.3914 0.719594 5.39261 0.627867C5.39261 0.50495 5.35616 0.384793 5.28787 0.282591C5.21958 0.180389 5.12252 0.100732 5.00896 0.0536936C4.8954 0.00665518 4.77044 -0.00565221 4.64989 0.0183278C4.52933 0.0423077 4.4186 0.101498 4.33168 0.188414C4.24477 0.275329 4.18558 0.386067 4.1616 0.506622C4.13762 0.627178 4.14992 0.752137 4.19696 0.865697C4.244 0.979258 4.32366 1.07632 4.42586 1.14461C4.52806 1.2129 4.64822 1.24935 4.77113 1.24935C4.86304 1.24812 4.95347 1.22608 5.03563 1.18488L6.20749 2.35716C6.34338 2.49205 6.45118 2.65254 6.52465 2.82934C6.59813 3.00615 6.63583 3.19577 6.63557 3.38724V4.58595C6.40142 4.69647 6.17764 4.82775 5.96694 4.97823H4.52196C4.47309 4.84001 4.37694 4.72352 4.25048 4.64934C4.12403 4.57516 3.97543 4.54807 3.83093 4.57286C3.68644 4.59765 3.55536 4.67273 3.46087 4.78482C3.36638 4.8969 3.31455 5.03879 3.31455 5.18539C3.31455 5.332 3.36638 5.47388 3.46087 5.58597C3.55536 5.69806 3.68644 5.77313 3.83093 5.79792C3.97543 5.82272 4.12403 5.79563 4.25048 5.72145C4.37694 5.64727 4.47309 5.53077 4.52196 5.39255H5.46487C5.1013 5.75214 4.80382 6.17287 4.58602 6.63552H3.38731C3.19582 6.63582 3.00618 6.59815 2.82935 6.52467C2.65252 6.45119 2.49202 6.34337 2.35715 6.20744L1.18537 5.03516C1.22632 4.95307 1.24821 4.8628 1.24942 4.77107C1.24918 4.60632 1.18363 4.44838 1.06713 4.33189C0.950634 4.21539 0.792699 4.14983 0.627947 4.14959C0.573005 4.14959 0.520313 4.17142 0.481463 4.21027C0.442613 4.24912 0.420788 4.30181 0.420788 4.35675C0.420788 4.41169 0.442613 4.46439 0.481463 4.50324C0.520313 4.54209 0.573005 4.56391 0.627947 4.56391C0.668919 4.56391 0.708971 4.57606 0.743038 4.59883C0.777106 4.62159 0.803658 4.65394 0.819337 4.6918C0.835017 4.72965 0.839119 4.7713 0.831126 4.81149C0.823132 4.85167 0.803402 4.88859 0.774431 4.91756C0.745459 4.94653 0.708547 4.96626 0.668362 4.97425C0.628177 4.98225 0.586524 4.97814 0.54867 4.96246C0.510817 4.94678 0.478463 4.92023 0.4557 4.88616C0.432937 4.8521 0.420788 4.81205 0.420788 4.77107C0.420788 4.71613 0.398962 4.66344 0.360112 4.62459C0.321262 4.58574 0.26857 4.56391 0.213628 4.56391C0.158686 4.56391 0.105994 4.58574 0.0671446 4.62459C0.0282947 4.66344 0.00646899 4.71613 0.00646899 4.77107C0.00671009 4.93583 0.0722645 5.09376 0.188762 5.21026C0.305259 5.32676 0.463195 5.39231 0.627947 5.39255C0.719852 5.39132 0.810284 5.36928 0.892448 5.32809L2.06431 6.50036C2.23752 6.67492 2.44364 6.81337 2.67074 6.90769C2.89784 7.00201 3.1414 7.05032 3.38731 7.04984H4.41697C4.27394 7.44972 4.19092 7.86859 4.17062 8.2928H1.20741C1.15854 8.15458 1.06239 8.03808 0.935935 7.9639C0.809482 7.88972 0.660877 7.86264 0.516385 7.88743C0.371892 7.91222 0.240815 7.98729 0.146321 8.09938C0.0518271 8.21147 0 8.35335 0 8.49996C0 8.64656 0.0518271 8.78845 0.146321 8.90054C0.240815 9.01262 0.371892 9.0877 0.516385 9.11249C0.660877 9.13728 0.809482 9.11019 0.935935 9.03601C1.06239 8.96183 1.15854 8.84534 1.20741 8.70712H4.17062C4.19091 9.13133 4.27393 9.5502 4.41697 9.95008H3.38731C3.14139 9.94958 2.89781 9.99789 2.6707 10.0922C2.44358 10.1865 2.23744 10.325 2.06422 10.4996L0.892116 11.6717C0.810044 11.6306 0.719729 11.6086 0.627947 11.6074C0.50503 11.6074 0.384874 11.6438 0.282672 11.7121C0.180471 11.7804 0.100814 11.8775 0.0537762 11.991C0.00673803 12.1046 -0.00556931 12.2295 0.0184106 12.3501C0.0423904 12.4706 0.10158 12.5814 0.188496 12.6683C0.275411 12.7552 0.386148 12.8144 0.506703 12.8384C0.627257 12.8624 0.752216 12.8501 0.865776 12.803C0.979336 12.756 1.0764 12.6763 1.14469 12.5741C1.21298 12.4719 1.24942 12.3518 1.24942 12.2288C1.24821 12.1371 1.22623 12.0467 1.18512 11.9647L2.35723 10.7925C2.4921 10.6566 2.65258 10.5487 2.82939 10.4753C3.00621 10.4018 3.19584 10.3641 3.38731 10.3644H4.58602C4.80388 10.8271 5.10145 11.2478 5.46512 11.6074H4.52196C4.47309 11.4691 4.37694 11.3526 4.25048 11.2785C4.12403 11.2043 3.97543 11.1772 3.83093 11.202C3.68644 11.2268 3.55536 11.3019 3.46087 11.4139C3.36638 11.526 3.31455 11.6679 3.31455 11.8145C3.31455 11.9611 3.36638 12.103 3.46087 12.2151C3.55536 12.3272 3.68644 12.4023 3.83093 12.4271C3.97543 12.4518 4.12403 12.4248 4.25048 12.3506C4.37694 12.2764 4.47309 12.1599 4.52196 12.0217H5.96702C6.17772 12.1721 6.40146 12.3034 6.63557 12.414V13.6127C6.63588 13.8042 6.5982 13.9938 6.52472 14.1706C6.45124 14.3475 6.34342 14.508 6.20749 14.6428L5.0353 15.8149C4.95323 15.7738 4.86291 15.7518 4.77113 15.7506C4.64822 15.7506 4.52806 15.787 4.42586 15.8553C4.32366 15.9236 4.244 16.0207 4.19696 16.1342C4.14992 16.2478 4.13762 16.3727 4.1616 16.4933C4.18558 16.6139 4.24477 16.7246 4.33168 16.8115C4.4186 16.8984 4.52933 16.9576 4.64989 16.9816C4.77044 17.0056 4.8954 16.9933 5.00896 16.9462C5.12252 16.8992 5.21958 16.8195 5.28787 16.7173C5.35616 16.6151 5.39261 16.495 5.39261 16.3721C5.3914 16.2803 5.36941 16.19 5.32831 16.1079L6.50042 14.9357C6.67497 14.7625 6.81342 14.5563 6.90774 14.3292C7.00206 14.1021 7.05037 13.8586 7.04989 13.6127V12.583C7.44977 12.726 7.86863 12.8091 8.29284 12.8294V15.7926C8.15462 15.8414 8.03813 15.9376 7.96395 16.0641C7.88977 16.1905 7.86268 16.3391 7.88747 16.4836C7.91226 16.6281 7.98734 16.7592 8.09942 16.8537C8.21151 16.9482 8.3534 17 8.5 17C8.6466 17 8.78849 16.9482 8.90058 16.8537C9.01266 16.7592 9.08774 16.6281 9.11253 16.4836C9.13732 16.3391 9.11023 16.1905 9.03605 16.0641C8.96187 15.9376 8.84538 15.8414 8.70716 15.7926V12.8294C9.13137 12.8091 9.55023 12.726 9.95012 12.583V13.6127C9.94962 13.8586 9.99793 14.1022 10.0922 14.3293C10.1866 14.5564 10.325 14.7625 10.4996 14.9358L11.6717 16.108C11.6306 16.19 11.6086 16.2803 11.6074 16.3721C11.6077 16.5368 11.6733 16.6947 11.7898 16.8112C11.9062 16.9276 12.0641 16.9932 12.2289 16.9935C12.2838 16.9935 12.3365 16.9717 12.3754 16.9329C12.4142 16.894 12.436 16.8413 12.436 16.7864C12.436 16.7314 12.4142 16.6787 12.3754 16.6399C12.3365 16.601 12.2838 16.5792 12.2289 16.5792C12.1879 16.5792 12.1478 16.5671 12.1138 16.5443C12.0797 16.5215 12.0532 16.4892 12.0375 16.4513C12.0218 16.4135 12.0177 16.3718 12.0257 16.3316C12.0337 16.2914 12.0534 16.2545 12.0824 16.2256C12.1114 16.1966 12.1483 16.1769 12.1885 16.1689C12.2286 16.1609 12.2703 16.165 12.3081 16.1807C12.346 16.1963 12.3784 16.2229 12.4011 16.257C12.4239 16.291 12.436 16.3311 12.436 16.3721C12.436 16.427 12.4579 16.4797 12.4967 16.5185C12.5356 16.5574 12.5882 16.5792 12.6432 16.5792C12.6981 16.5792 12.7508 16.5574 12.7897 16.5185C12.8285 16.4797 12.8503 16.427 12.8503 16.3721C12.85 16.2073 12.7845 16.0494 12.668 15.9329C12.5515 15.8165 12.3936 15.7509 12.2289 15.7506C12.1371 15.7518 12.0468 15.7738 11.9647 15.8149L10.7925 14.6428C10.6566 14.5079 10.5488 14.3474 10.4753 14.1706C10.4018 13.9938 10.3641 13.8041 10.3644 13.6127V12.414C10.5985 12.3034 10.8223 12.1721 11.033 12.0217H12.478C12.5269 12.1599 12.6231 12.2764 12.7495 12.3506C12.876 12.4248 13.0246 12.4518 13.1691 12.4271C13.3136 12.4023 13.4446 12.3272 13.5391 12.2151C13.6336 12.103 13.6855 11.9611 13.6855 11.8145C13.6855 11.6679 13.6336 11.526 13.5391 11.4139C13.4446 11.3019 13.3136 11.2268 13.1691 11.202C13.0246 11.1772 12.876 11.2043 12.7495 11.2785C12.6231 11.3526 12.5269 11.4691 12.478 11.6074H11.5349C11.8986 11.2478 12.1961 10.8271 12.414 10.3644H13.6127C13.8042 10.3641 13.9938 10.4018 14.1707 10.4752C14.3475 10.5487 14.508 10.6566 14.6429 10.7925L15.815 11.9647C15.7738 12.0467 15.7518 12.1371 15.7506 12.2288C15.7506 12.3518 15.787 12.4719 15.8553 12.5741C15.9236 12.6763 16.0207 12.756 16.1342 12.803C16.2478 12.8501 16.3727 12.8624 16.4933 12.8384C16.6139 12.8144 16.7246 12.7552 16.8115 12.6683C16.8984 12.5814 16.9576 12.4706 16.9816 12.3501C17.0056 12.2295 16.9933 12.1046 16.9462 11.991C16.8992 11.8775 16.8195 11.7804 16.7173 11.7121C16.6151 11.6438 16.495 11.6074 16.3721 11.6074C16.2803 11.6086 16.19 11.6306 16.1079 11.6717L14.9357 10.4996C14.7625 10.325 14.5564 10.1865 14.3293 10.0922C14.1022 9.99791 13.8586 9.94959 13.6127 9.95008H12.583C12.7261 9.5502 12.8091 9.13133 12.8294 8.70712H15.7926ZM16.3721 8.2928C16.413 8.2928 16.4531 8.30495 16.4871 8.32771C16.5212 8.35047 16.5478 8.38283 16.5634 8.42068C16.5791 8.45854 16.5832 8.50019 16.5752 8.54037C16.5672 8.58056 16.5475 8.61747 16.5185 8.64644C16.4896 8.67541 16.4527 8.69514 16.4125 8.70314C16.3723 8.71113 16.3306 8.70703 16.2928 8.69135C16.2549 8.67567 16.2226 8.64912 16.1998 8.61505C16.177 8.58098 16.1649 8.54093 16.1649 8.49996C16.1649 8.44502 16.1867 8.39232 16.2256 8.35347C16.2644 8.31462 16.3171 8.2928 16.3721 8.2928ZM16.3721 4.56391C16.413 4.56391 16.4531 4.57606 16.4871 4.59883C16.5212 4.62159 16.5478 4.65394 16.5634 4.6918C16.5791 4.72965 16.5832 4.7713 16.5752 4.81149C16.5672 4.85167 16.5475 4.88859 16.5185 4.91756C16.4896 4.94653 16.4527 4.96626 16.4125 4.97425C16.3723 4.98225 16.3306 4.97814 16.2928 4.96246C16.2549 4.94678 16.2226 4.92023 16.1998 4.88616C16.177 4.8521 16.1649 4.81205 16.1649 4.77107C16.1649 4.71613 16.1867 4.66344 16.2256 4.62459C16.2644 4.58574 16.3171 4.56391 16.3721 4.56391ZM13.0575 4.97823C13.0985 4.97823 13.1385 4.99038 13.1726 5.01315C13.2067 5.03591 13.2332 5.06826 13.2489 5.10612C13.2646 5.14397 13.2687 5.18562 13.2607 5.22581C13.2527 5.26599 13.233 5.30291 13.204 5.33188C13.175 5.36085 13.1381 5.38058 13.0979 5.38857C13.0577 5.39657 13.0161 5.39246 12.9782 5.37678C12.9404 5.3611 12.908 5.33455 12.8853 5.30049C12.8625 5.26642 12.8503 5.22637 12.8503 5.18539C12.8503 5.13045 12.8722 5.07776 12.911 5.03891C12.9499 5.00006 13.0026 4.97823 13.0575 4.97823ZM12.2289 0.420707C12.2698 0.420707 12.3099 0.432856 12.344 0.45562C12.378 0.478383 12.4046 0.510737 12.4203 0.54859C12.4359 0.586444 12.44 0.628097 12.432 0.668282C12.4241 0.708467 12.4043 0.74538 12.3754 0.774351C12.3464 0.803323 12.3095 0.823053 12.2693 0.831047C12.2291 0.83904 12.1874 0.834938 12.1496 0.819258C12.1117 0.803579 12.0794 0.777027 12.0566 0.742959C12.0339 0.708892 12.0217 0.668839 12.0217 0.627867C12.0217 0.572925 12.0435 0.520233 12.0824 0.481383C12.1212 0.442533 12.1739 0.420707 12.2289 0.420707ZM4.77113 0.835027C4.73016 0.835027 4.69011 0.822878 4.65604 0.800114C4.62197 0.777351 4.59542 0.744997 4.57974 0.707144C4.56406 0.66929 4.55996 0.627637 4.56795 0.587452C4.57595 0.547267 4.59568 0.510354 4.62465 0.481383C4.65362 0.452411 4.69053 0.432681 4.73072 0.424687C4.7709 0.416694 4.81256 0.420796 4.85041 0.436476C4.88826 0.452155 4.92062 0.478708 4.94338 0.512775C4.96614 0.546842 4.97829 0.586895 4.97829 0.627867C4.97829 0.682809 4.95647 0.735501 4.91762 0.774351C4.87877 0.813202 4.82607 0.835027 4.77113 0.835027ZM3.9425 5.39255C3.90152 5.39255 3.86147 5.3804 3.8274 5.35764C3.79334 5.33488 3.76678 5.30252 3.75111 5.26467C3.73543 5.22682 3.73132 5.18516 3.73932 5.14498C3.74731 5.10479 3.76704 5.06788 3.79601 5.03891C3.82498 5.00994 3.8619 4.99021 3.90208 4.98221C3.94227 4.97422 3.98392 4.97832 4.02177 4.994C4.05963 5.00968 4.09198 5.03623 4.11474 5.0703C4.13751 5.10437 4.14965 5.14442 4.14965 5.18539C4.14965 5.24034 4.12783 5.29303 4.08898 5.33188C4.05013 5.37073 3.99744 5.39255 3.9425 5.39255ZM0.627947 8.70712C0.586975 8.70712 0.546922 8.69497 0.512855 8.67221C0.478788 8.64944 0.452236 8.61709 0.436557 8.57923C0.420877 8.54138 0.416775 8.49973 0.424768 8.45954C0.432761 8.41936 0.452491 8.38245 0.481463 8.35347C0.510435 8.3245 0.547347 8.30477 0.587532 8.29678C0.627717 8.28878 0.66937 8.29289 0.707223 8.30857C0.745077 8.32425 0.777431 8.3508 0.800194 8.38487C0.822956 8.41893 0.835106 8.45899 0.835106 8.49996C0.835106 8.5549 0.81328 8.60759 0.774431 8.64644C0.735581 8.68529 0.682889 8.70712 0.627947 8.70712ZM0.627947 12.436C0.586975 12.436 0.546922 12.4239 0.512855 12.4011C0.478788 12.3783 0.452236 12.346 0.436557 12.3081C0.420877 12.2703 0.416775 12.2286 0.424768 12.1884C0.432761 12.1482 0.452491 12.1113 0.481463 12.0824C0.510435 12.0534 0.547347 12.0337 0.587532 12.0257C0.627717 12.0177 0.66937 12.0218 0.707223 12.0375C0.745077 12.0531 0.777431 12.0797 0.800194 12.1138C0.822956 12.1478 0.835106 12.1879 0.835106 12.2288C0.835106 12.2838 0.81328 12.3365 0.774431 12.3753C0.735581 12.4142 0.682889 12.436 0.627947 12.436ZM3.9425 12.0217C3.90152 12.0217 3.86147 12.0095 3.8274 11.9868C3.79334 11.964 3.76678 11.9317 3.75111 11.8938C3.73543 11.8559 3.73132 11.8143 3.73932 11.7741C3.74731 11.7339 3.76704 11.697 3.79601 11.668C3.82498 11.6391 3.8619 11.6193 3.90208 11.6113C3.94227 11.6033 3.98392 11.6075 4.02177 11.6231C4.05963 11.6388 4.09198 11.6654 4.11474 11.6994C4.13751 11.7335 4.14965 11.7736 4.14965 11.8145C4.14965 11.8695 4.12783 11.9222 4.08898 11.961C4.05013 11.9999 3.99744 12.0217 3.9425 12.0217ZM4.77113 16.5792C4.73016 16.5792 4.69011 16.5671 4.65604 16.5443C4.62197 16.5215 4.59542 16.4892 4.57974 16.4513C4.56406 16.4135 4.55996 16.3718 4.56795 16.3316C4.57595 16.2914 4.59568 16.2545 4.62465 16.2256C4.65362 16.1966 4.69053 16.1769 4.73072 16.1689C4.7709 16.1609 4.81256 16.165 4.85041 16.1807C4.88826 16.1963 4.92062 16.2229 4.94338 16.257C4.96614 16.291 4.97829 16.3311 4.97829 16.3721C4.97829 16.427 4.95647 16.4797 4.91762 16.5185C4.87877 16.5574 4.82607 16.5792 4.77113 16.5792ZM13.0575 11.6074C13.0985 11.6074 13.1385 11.6195 13.1726 11.6423C13.2067 11.665 13.2332 11.6974 13.2489 11.7352C13.2646 11.7731 13.2687 11.8148 13.2607 11.8549C13.2527 11.8951 13.233 11.932 13.204 11.961C13.175 11.99 13.1381 12.0097 13.0979 12.0177C13.0577 12.0257 13.0161 12.0216 12.9782 12.0059C12.9404 11.9902 12.908 11.9637 12.8853 11.9296C12.8625 11.8955 12.8503 11.8555 12.8503 11.8145C12.8503 11.7596 12.8722 11.7069 12.911 11.668C12.9499 11.6292 13.0026 11.6074 13.0575 11.6074ZM16.3721 12.0217C16.413 12.0217 16.4531 12.0338 16.4871 12.0566C16.5212 12.0794 16.5478 12.1117 16.5634 12.1496C16.5791 12.1874 16.5832 12.2291 16.5752 12.2693C16.5672 12.3094 16.5475 12.3464 16.5185 12.3753C16.4896 12.4043 16.4527 12.424 16.4125 12.432C16.3723 12.44 16.3306 12.4359 16.2928 12.4202C16.2549 12.4046 16.2226 12.378 16.1998 12.3439C16.177 12.3099 16.1649 12.2698 16.1649 12.2288C16.1649 12.1739 16.1867 12.1212 16.2256 12.0824C16.2644 12.0435 16.3171 12.0217 16.3721 12.0217ZM8.5 0.420707C8.54097 0.420707 8.58102 0.432856 8.61509 0.45562C8.64916 0.478383 8.67571 0.510737 8.69139 0.54859C8.70707 0.586444 8.71117 0.628097 8.70318 0.668282C8.69519 0.708467 8.67546 0.74538 8.64648 0.774351C8.61751 0.803323 8.5806 0.823053 8.54042 0.831047C8.50023 0.83904 8.45858 0.834938 8.42072 0.819258C8.38287 0.803579 8.35052 0.777027 8.32775 0.742959C8.30499 0.708892 8.29284 0.668839 8.29284 0.627867C8.29284 0.572925 8.31467 0.520233 8.35352 0.481383C8.39237 0.442533 8.44506 0.420707 8.5 0.420707ZM8.5 16.5792C8.45903 16.5792 8.41898 16.5671 8.38491 16.5443C8.35084 16.5215 8.32429 16.4892 8.30861 16.4513C8.29293 16.4135 8.28883 16.3718 8.29682 16.3316C8.30481 16.2914 8.32454 16.2545 8.35352 16.2256C8.38249 16.1966 8.4194 16.1769 8.45959 16.1689C8.49977 16.1609 8.54142 16.165 8.57928 16.1807C8.61713 16.1963 8.64948 16.2229 8.67225 16.257C8.69501 16.291 8.70716 16.3311 8.70716 16.3721C8.70716 16.427 8.68533 16.4797 8.64648 16.5185C8.60763 16.5574 8.55494 16.5792 8.5 16.5792ZM11.7214 10.7493L9.69125 10.2414C9.59589 10.2183 9.50751 10.1725 9.43357 10.108C9.35962 10.0435 9.30229 9.96211 9.26641 9.87078C9.19034 9.68019 9.4995 9.34401 9.72439 9.0984C9.81024 9.00535 9.89194 8.9161 9.95749 8.83415C10.1764 8.55978 10.3134 8.22918 10.3528 7.88039C10.3921 7.5316 10.3323 7.17879 10.18 6.86253C10.0277 6.54627 9.78928 6.27942 9.49208 6.09267C9.19488 5.90592 8.851 5.80685 8.5 5.80687C8.44506 5.80687 8.39237 5.8287 8.35352 5.86755C8.31467 5.9064 8.29284 5.95909 8.29284 6.01403C8.29284 6.06898 8.31467 6.12167 8.35352 6.16052C8.39237 6.19937 8.44506 6.22119 8.5 6.22119C8.88445 6.22168 9.25301 6.37461 9.52485 6.64646C9.7967 6.91831 9.94963 7.28687 9.95012 7.67132C9.95162 8.00001 9.8399 8.31919 9.63374 8.5752C9.573 8.65085 9.49776 8.73264 9.41929 8.81799C9.10283 9.1627 8.70882 9.59161 8.88117 10.0245C8.94117 10.1769 9.03697 10.3127 9.16048 10.4203C9.284 10.5279 9.4316 10.6042 9.59082 10.6427L11.4296 11.1028C11.0649 11.5214 10.6147 11.8571 10.1094 12.087C9.60401 12.317 9.05523 12.436 8.5 12.436C7.94477 12.436 7.39599 12.317 6.89063 12.087C6.38527 11.8571 5.93507 11.5214 5.57035 11.1028L7.40918 10.6427C7.56838 10.6042 7.71597 10.5279 7.83949 10.4204C7.963 10.3128 8.05881 10.1771 8.11883 10.0247C8.29118 9.59178 7.89717 9.16287 7.58071 8.81816C7.50224 8.73281 7.427 8.65102 7.36626 8.57536C7.16007 8.31931 7.04835 8.00006 7.04989 7.67132C7.05044 7.41682 7.11767 7.1669 7.24489 6.94648C7.3721 6.72606 7.55486 6.54281 7.77494 6.41501C7.79958 6.40199 7.82133 6.38414 7.83891 6.36252C7.85648 6.34089 7.86951 6.31595 7.87722 6.28917C7.88493 6.26239 7.88715 6.23434 7.88377 6.20668C7.88038 6.17902 7.87145 6.15233 7.85751 6.12821C7.84356 6.10408 7.8249 6.08302 7.80263 6.06627C7.78035 6.04953 7.75493 6.03745 7.72788 6.03076C7.70084 6.02407 7.67272 6.02291 7.64521 6.02734C7.6177 6.03177 7.59136 6.0417 7.56778 6.05654C7.33535 6.19073 7.13462 6.37351 6.97932 6.5924C6.82402 6.8113 6.7178 7.06114 6.66794 7.32485C6.61808 7.58857 6.62574 7.85994 6.6904 8.12043C6.75506 8.38091 6.87519 8.62436 7.04259 8.83415C7.10814 8.91627 7.18984 9.00535 7.27569 9.0984C7.50058 9.34401 7.80975 9.67978 7.73368 9.87078C7.6978 9.96211 7.64046 10.0435 7.56652 10.108C7.49257 10.1725 7.40419 10.2183 7.30883 10.2414L5.27867 10.7493C4.8647 10.1596 4.62051 9.46766 4.57272 8.74877C4.52494 8.02988 4.67538 7.31167 5.00766 6.67239C5.33994 6.03312 5.84131 5.49731 6.45714 5.12336C7.07296 4.7494 7.77961 4.55165 8.50008 4.55165C9.22055 4.55165 9.9272 4.7494 10.543 5.12336C11.1589 5.49731 11.6602 6.03312 11.9925 6.67239C12.3248 7.31167 12.4752 8.02988 12.4274 8.74877C12.3797 9.46766 12.1354 10.1596 11.7214 10.7493Z" fill="#143AC2"/>
</svg>
