<svg width="49" height="48" viewBox="0 0 49 48" fill="none" xmlns="http://www.w3.org/2000/svg">
<path fill-rule="evenodd" clip-rule="evenodd" d="M7.13002 23.6557L14.7638 25.4558C15.1072 24.7908 15.7402 24.311 16.489 24.1453V20.2465C15.7542 20.0846 15.1312 19.6182 14.7818 18.9726C14.4343 18.327 14.3984 17.5657 14.6819 16.8912L11.6549 14.8406C11.0299 15.388 10.1653 15.6038 9.34465 15.4188L6.17582 21.6841C6.7928 22.1621 7.14821 22.8925 7.13227 23.6576L7.13002 23.6557ZM14.4898 26.5196C14.4778 27.1498 14.7154 27.7607 15.1547 28.2252L9.97916 35.3712C9.61376 35.2247 9.2164 35.1649 8.82106 35.1919L5.83795 25.7641H5.83595C6.27524 25.5194 6.63066 25.157 6.85828 24.7196L14.492 26.5196L14.4898 26.5196ZM42.9695 18.8492L44.9322 23.1122C45.8607 22.933 46.8172 23.2644 47.4182 23.9698C48.0192 24.6771 48.1669 25.6465 47.8036 26.4926C47.4402 27.3367 46.6255 27.9187 45.683 28.0093C44.7386 28.0979 43.8221 27.6778 43.2969 26.9166L39.9843 28.1385V28.1404C40.164 29.3564 39.3912 30.5186 38.1692 30.8655C36.9472 31.2143 35.6454 30.6458 35.1102 29.528L27.8179 31.0255C27.8079 31.7385 27.4785 32.4131 26.9174 32.8756C26.3543 33.3401 25.6115 33.5463 24.8807 33.4441L22.4826 39.4627C23.2514 39.958 23.6827 40.8157 23.6147 41.706C23.5469 42.5945 22.9877 43.3808 22.1511 43.7624C21.3165 44.144 20.3321 44.0611 19.5753 43.5485C18.8205 43.0339 18.4092 42.1686 18.499 41.2801L11.2067 38.9443C10.7974 39.6015 10.0945 40.037 9.30381 40.1257C8.51508 40.2143 7.7284 39.9445 7.17327 39.3952C6.6162 38.846 6.35658 38.0809 6.46643 37.3216C6.57625 36.5622 7.04548 35.8935 7.73438 35.5138L4.74927 26.086H4.75126C4.0045 26.1361 3.27169 25.8721 2.74652 25.3594C2.2194 24.8467 1.94982 24.1395 2.00773 23.4187C2.06564 22.6998 2.44702 22.0407 3.05204 21.6148C3.65507 21.187 4.42182 21.0366 5.15064 21.2005L8.31946 14.9352C7.74041 14.4861 7.39297 13.8193 7.36302 13.1043C7.33307 12.3874 7.62459 11.6955 8.16371 11.2041C8.70284 10.7126 9.43565 10.4678 10.1744 10.5372C10.9112 10.6047 11.5841 10.9785 12.0155 11.5606L20.969 7.91426C20.8433 7.23395 21.019 6.53243 21.4503 5.98316C21.8836 5.43197 22.5345 5.07931 23.2473 5.01181C23.9582 4.94436 24.669 5.16792 25.2041 5.6266C25.7393 6.08528 26.0507 6.74053 26.0647 7.43046L32.5821 8.73133C32.8816 8.09533 33.4467 7.6097 34.1356 7.3977C34.8265 7.18378 35.5792 7.2628 36.2062 7.61355C36.8332 7.96431 37.2765 8.55402 37.4282 9.23822C37.582 9.92238 37.4262 10.6354 37.0029 11.204L40.1997 14.6884C41.3818 14.064 42.8633 14.4283 43.5922 15.5229C44.321 16.6176 44.0494 18.0688 42.9691 18.8474L42.9695 18.8492ZM43.8959 23.5574L41.9332 19.2944V19.2925C41.6876 19.3387 41.434 19.3522 41.1844 19.3272L38.7663 26.3676C39.0898 26.5564 39.3654 26.8108 39.575 27.1153L42.8876 25.8915C42.7538 24.9934 43.1412 24.0973 43.896 23.5557L43.8959 23.5574ZM27.5826 29.952L34.8728 28.4545C34.8788 27.9573 35.0425 27.4716 35.3381 27.065L30.508 21.9172C30.0427 22.1715 29.5056 22.2775 28.9745 22.2217L26.6043 28.8822C27.0316 29.1385 27.3731 29.5085 27.5847 29.9499L27.5826 29.952ZM11.5646 37.9056L18.857 40.2376C19.3901 39.3838 20.4024 38.9232 21.4247 39.0658L23.8228 33.0472C22.8904 32.444 22.4711 31.3242 22.7885 30.2855L18.9648 28.2214C18.2399 28.9961 17.0898 29.2505 16.0894 28.8535L10.9077 35.9995C11.3969 36.516 11.6365 37.2079 11.5646 37.9056ZM27.6981 17.7835C27.3287 18.0514 27.0411 18.4118 26.8674 18.8261L19.6211 17.6795C19.5592 16.7312 18.9383 15.8987 18.0257 15.5402C17.1132 15.1799 16.067 15.3572 15.3361 15.9951L12.3071 13.9445C12.4908 13.509 12.5447 13.0329 12.4588 12.5704L21.4145 8.92409C22.0035 9.71812 23.0218 10.1055 24.0142 9.91083L27.7022 17.7855L27.6981 17.7835ZM25.0484 9.45591L28.7364 17.3306H28.7344C29.1377 17.2516 29.557 17.267 29.9524 17.3749L33.219 11.6143V11.6163C32.6799 11.1556 32.3664 10.5004 32.3525 9.80657L25.8351 8.5057C25.6574 8.87958 25.3879 9.2073 25.0484 9.45591ZM25.5276 28.5276L27.8978 21.8671H27.8958C27.1869 21.4431 26.7337 20.7127 26.6837 19.909L19.4374 18.7623C19.1219 19.512 18.447 20.0671 17.6284 20.2463V24.1451C18.3193 24.2973 18.9143 24.7194 19.2717 25.3091C19.6291 25.9008 19.7189 26.6081 19.5193 27.2633L23.343 29.3312C23.8941 28.7415 24.7048 28.4428 25.5235 28.5276L25.5276 28.5276ZM31.3483 21.1828L36.1784 26.3306C36.6377 26.0801 37.1648 25.9722 37.6899 26.0223L40.108 18.9819V18.9838C39.495 18.6254 39.0637 18.0375 38.9199 17.3592C38.7762 16.6808 38.9319 15.9773 39.3492 15.4146L36.1524 11.9302H36.1544C35.5614 12.2443 34.8626 12.3214 34.2116 12.1422L30.9469 17.9008C31.9274 18.7372 32.0991 20.1499 31.3483 21.1828ZM24.5073 6.50506C24.098 6.10998 23.485 5.9924 22.9519 6.20634C22.4167 6.42026 22.0693 6.92133 22.0693 7.48022C22.0693 8.03719 22.4167 8.54018 22.9519 8.75218C23.485 8.9661 24.098 8.84854 24.5073 8.45346C25.0624 7.91578 25.0624 7.04466 24.5073 6.50506ZM46.4395 24.5669C46.0321 24.1737 45.4171 24.0561 44.884 24.2681C44.3488 24.4821 44.0014 24.985 44.0014 25.542C44.0014 26.099 44.3488 26.602 44.884 26.8159C45.4171 27.0298 46.0321 26.9123 46.4395 26.5172C46.9965 25.9775 46.9965 25.1064 46.4395 24.5669ZM22.0629 40.5456C21.6556 40.1505 21.0406 40.033 20.5075 40.2469C19.9743 40.4589 19.6249 40.9619 19.6249 41.5189C19.6249 42.0778 19.9743 42.5788 20.5075 42.7927C21.0406 43.0067 21.6556 42.8891 22.0629 42.494C22.62 41.9544 22.62 41.0833 22.0629 40.5456ZM9.43968 36.3481C8.94848 36.1978 8.41136 36.3154 8.03397 36.6546C7.65658 36.9957 7.49883 37.5045 7.62064 37.9901C7.74444 38.4738 8.12582 38.8554 8.62299 38.9903C9.12018 39.1252 9.6533 38.9903 10.0187 38.6376C10.3702 38.2965 10.5139 37.8032 10.3961 37.3368C10.2763 36.8685 9.9149 36.4946 9.44167 36.3481L9.43968 36.3481ZM26.2601 30.0172C25.8528 29.6221 25.2378 29.5045 24.7046 29.7166C24.1715 29.9305 23.8221 30.4335 23.8221 30.9904C23.8221 31.5493 24.1715 32.0504 24.7046 32.2643C25.2378 32.4782 25.8528 32.3607 26.2601 31.9656C26.8172 31.426 26.8172 30.5549 26.2601 30.0172ZM18.0677 25.5846C18.4051 25.9103 18.5529 26.3767 18.459 26.8276C18.3652 27.2805 18.0457 27.6563 17.6044 27.8337C17.1651 28.009 16.6619 27.9608 16.2646 27.7065C15.8692 27.4501 15.6296 27.0204 15.6296 26.5598C15.6296 26.0028 15.979 25.4998 16.5122 25.2859C17.0453 25.072 17.6603 25.1914 18.0677 25.5846ZM5.57219 22.6397C5.15887 22.2408 4.5359 22.1252 3.99877 22.3449C3.46163 22.5665 3.11818 23.0811 3.1282 23.6438C3.14018 24.2085 3.50558 24.7076 4.0527 24.9081C4.5978 25.1085 5.21678 24.9678 5.61216 24.5535C6.1333 24.0081 6.11531 23.164 5.57219 22.6397ZM10.9394 12.0323C11.2769 12.358 11.4227 12.8244 11.3308 13.2753C11.237 13.7263 10.9175 14.104 10.4762 14.2794C10.0349 14.4567 9.5317 14.4086 9.13636 14.1522C8.73901 13.8979 8.50139 13.4681 8.50139 13.0075C8.50339 12.4505 8.85282 11.9494 9.38397 11.7374C9.91712 11.5254 10.5301 11.6411 10.9394 12.0323ZM18.0697 16.858C18.4072 17.1818 18.5529 17.6501 18.4591 18.1011C18.3672 18.5521 18.0457 18.9298 17.6064 19.1052C17.1652 19.2806 16.662 19.2343 16.2666 18.978C15.8693 18.7217 15.6317 18.2919 15.6317 17.8313C15.6297 17.2743 15.9791 16.7713 16.5122 16.5574C17.0454 16.3454 17.6604 16.463 18.0697 16.858ZM30.2559 18.7833C29.8486 18.3882 29.2336 18.2707 28.7004 18.4846C28.1653 18.6985 27.8179 19.1996 27.8179 19.7585C27.8179 20.3154 28.1653 20.8184 28.7004 21.0324C29.2336 21.2444 29.8486 21.1268 30.2559 20.7317C30.813 20.194 30.813 19.3229 30.2559 18.7833ZM38.4484 27.5155C38.041 27.1223 37.4261 27.0028 36.8929 27.2168C36.3598 27.4307 36.0103 27.9337 36.0103 28.4906C36.0103 29.0476 36.3598 29.5506 36.8929 29.7645C37.4261 29.9765 38.041 29.859 38.4484 29.4658C39.0055 28.9262 39.0055 28.0551 38.4484 27.5155ZM42.4439 15.8887C42.0365 15.4936 41.4215 15.3761 40.8884 15.59C40.3552 15.8039 40.0058 16.305 40.0058 16.8639C40.0058 17.4208 40.3552 17.9238 40.8884 18.1378C41.4215 18.3498 42.0365 18.2322 42.4439 17.8371C43.0009 17.2994 43.0009 16.4283 42.4439 15.8887ZM35.9285 8.78517C35.5212 8.39009 34.9062 8.27251 34.3731 8.48645C33.8379 8.69845 33.4905 9.20144 33.4905 9.75841C33.4905 10.3173 33.8379 10.8184 34.3731 11.0323C34.9062 11.2462 35.5212 11.1286 35.9285 10.7336C36.4856 10.1939 36.4856 9.32283 35.9285 8.78323V8.78517Z" fill="#143AC2"/>
</svg>
