<svg width="26" height="26" viewBox="0 0 26 26" fill="none" xmlns="http://www.w3.org/2000/svg">
<path d="M12.9988 2.02734C12.9892 2.02734 12.9799 2.02803 12.9703 2.02803C12.9689 2.02803 12.9679 2.02734 12.9665 2.02734H12.9655C12.9638 2.02734 12.9624 2.02837 12.9607 2.02837C6.92849 2.04894 2.02734 6.96174 2.02734 12.9988C2.02734 19.0485 6.94906 23.9702 12.9988 23.9702C13.0084 23.9702 13.0176 23.9695 13.0272 23.9695C13.0286 23.9695 13.0296 23.9702 13.031 23.9702H13.032C13.0337 23.9702 13.0351 23.9692 13.0368 23.9692C19.0687 23.9489 23.9702 19.0355 23.9702 12.9988C23.9702 6.94906 19.0485 2.02734 12.9988 2.02734ZM13.3728 23.2752L13.3656 20.8835C13.3653 20.6942 13.2117 20.5416 13.0228 20.5416H13.0217C12.8325 20.5423 12.6792 20.6963 12.6799 20.8855L12.6871 23.2766C7.27374 23.1141 2.90026 18.7509 2.72163 13.3416H5.11306C5.30232 13.3416 5.45592 13.188 5.45592 12.9988C5.45592 12.8095 5.30232 12.6559 5.11306 12.6559H2.72163C2.89957 7.26723 7.24014 2.91637 12.6247 2.72266L12.6319 5.11409C12.6323 5.303 12.7859 5.45592 12.9748 5.45592H12.9758C13.1651 5.45557 13.3183 5.30129 13.3176 5.11203L13.3104 2.72094C18.7238 2.88346 23.0973 7.24666 23.2759 12.6559H20.8845C20.6949 12.6559 20.5416 12.8095 20.5416 12.9988C20.5416 13.188 20.6949 13.3416 20.8845 13.3416H23.2759C23.098 18.7303 18.7574 23.0812 13.3728 23.2752Z" fill="url(#paint0_linear_549_277)" stroke="url(#paint1_linear_549_277)" stroke-width="0.2"/>
<path d="M13 1C6.3832 1 1 6.3832 1 13C1 19.6168 6.3832 25 13 25C19.6168 25 25 19.6168 25 13C25 6.3832 19.6168 1 13 1ZM13 24.3143C6.76137 24.3143 1.68571 19.2386 1.68571 13C1.68571 6.76137 6.76137 1.68571 13 1.68571C19.2386 1.68571 24.3143 6.76137 24.3143 13C24.3143 19.2386 19.2386 24.3143 13 24.3143Z" fill="url(#paint2_linear_549_277)" stroke="url(#paint3_linear_549_277)" stroke-width="0.2"/>
<path d="M18.5846 7.57295L13.8964 11.9694C13.6553 11.7599 13.3447 11.6286 13.0012 11.6286C12.3641 11.6286 11.8317 12.0675 11.6784 12.6572H8.54403C8.35477 12.6572 8.20117 12.8108 8.20117 13C8.20117 13.1893 8.35477 13.3429 8.54403 13.3429H11.6784C11.8317 13.933 12.3641 14.3715 13.0012 14.3715C13.7575 14.3715 14.3726 13.7564 14.3726 13C14.3726 12.8386 14.3393 12.686 14.2883 12.542L19.0533 8.07318C19.1915 7.94358 19.1987 7.72655 19.0691 7.58838C18.9391 7.45055 18.7228 7.44404 18.5846 7.57295ZM13.0012 13.6858C12.623 13.6858 12.3155 13.3782 12.3155 13C12.3155 12.6219 12.623 12.3143 13.0012 12.3143C13.3793 12.3143 13.6869 12.6219 13.6869 13C13.6869 13.3782 13.3793 13.6858 13.0012 13.6858Z" fill="url(#paint4_linear_549_277)" stroke="url(#paint5_linear_549_277)" stroke-width="0.2"/>
<defs>
<linearGradient id="paint0_linear_549_277" x1="2.48449" y1="14.3702" x2="23.9702" y2="14.3702" gradientUnits="userSpaceOnUse">
<stop stop-color="#133CBD"/>
<stop offset="1" stop-color="#1048A1"/>
</linearGradient>
<linearGradient id="paint1_linear_549_277" x1="12.9988" y1="2.02734" x2="12.9988" y2="23.9702" gradientUnits="userSpaceOnUse">
<stop stop-color="#143AC2"/>
<stop offset="1" stop-color="#091C5C"/>
</linearGradient>
<linearGradient id="paint2_linear_549_277" x1="1.5" y1="14.5" x2="25" y2="14.5" gradientUnits="userSpaceOnUse">
<stop stop-color="#133CBD"/>
<stop offset="1" stop-color="#1048A1"/>
</linearGradient>
<linearGradient id="paint3_linear_549_277" x1="13" y1="1" x2="13" y2="25" gradientUnits="userSpaceOnUse">
<stop stop-color="#143AC2"/>
<stop offset="1" stop-color="#091C5C"/>
</linearGradient>
<linearGradient id="paint4_linear_549_277" x1="8.42952" y1="11.3567" x2="19.1618" y2="11.3567" gradientUnits="userSpaceOnUse">
<stop stop-color="#133CBD"/>
<stop offset="1" stop-color="#1048A1"/>
</linearGradient>
<linearGradient id="paint5_linear_549_277" x1="13.6815" y1="7.48047" x2="13.6815" y2="14.3715" gradientUnits="userSpaceOnUse">
<stop stop-color="#143AC2"/>
<stop offset="1" stop-color="#091C5C"/>
</linearGradient>
</defs>
</svg>
