<svg width="16" height="16" viewBox="0 0 16 16" fill="none" xmlns="http://www.w3.org/2000/svg">
<g clip-path="url(#clip0_531_244)">
<path fill-rule="evenodd" clip-rule="evenodd" d="M10.3784 0.685714C10.3784 0.307005 10.6688 0 11.027 0H13.6216C14.9352 0 16 1.12569 16 2.51429V13.4857C16 14.8743 14.9352 16 13.6216 16H11.027C10.6688 16 10.3784 15.693 10.3784 15.3143C10.3784 14.9356 10.6688 14.6286 11.027 14.6286H13.6216C14.2187 14.6286 14.7027 14.1169 14.7027 13.4857V2.51429C14.7027 1.8831 14.2187 1.37143 13.6216 1.37143H11.027C10.6688 1.37143 10.3784 1.06442 10.3784 0.685714ZM7.1089 3.85798C7.36222 3.5902 7.77292 3.5902 8.02623 3.85798L11.4857 7.51513C11.739 7.78292 11.739 8.21709 11.4857 8.48487L8.02623 12.142C7.77292 12.4098 7.36222 12.4098 7.1089 12.142C6.85559 11.8742 6.85559 11.4401 7.1089 11.1723L9.46105 8.68571H0.648649C0.29041 8.68571 0 8.37871 0 8C0 7.62129 0.29041 7.31429 0.648649 7.31429H9.46105L7.1089 4.82773C6.85559 4.55994 6.85559 4.12577 7.1089 3.85798Z" fill="url(#paint0_linear_531_244)"/>
</g>
<defs>
<linearGradient id="paint0_linear_531_244" x1="13.2903" y1="5.33333" x2="-8.03695" y2="10.6806" gradientUnits="userSpaceOnUse">
<stop stop-color="#0E4A98"/>
<stop offset="1" stop-color="#1C22FF"/>
</linearGradient>
<clipPath id="clip0_531_244">
<rect width="16" height="16" fill="white"/>
</clipPath>
</defs>
</svg>
