<svg width="26" height="26" viewBox="0 0 26 26" fill="none" xmlns="http://www.w3.org/2000/svg">
<path fill-rule="evenodd" clip-rule="evenodd" d="M23.2208 2.7755C22.462 2.01815 21.4136 1.54961 20.2556 1.54961C19.0976 1.54961 18.0492 2.01815 17.2904 2.7755C16.5316 3.53285 16.0622 4.57927 16.0622 5.73502C16.0622 6.89078 16.5316 7.9372 17.2904 8.69455C18.0492 9.45189 19.0976 9.92044 20.2556 9.92044C21.4136 9.92044 22.462 9.45189 23.2208 8.69455C23.9796 7.9372 24.4491 6.89078 24.4491 5.73502C24.4491 4.57927 23.9796 3.53285 23.2208 2.7755ZM20.2556 1C21.5656 1 22.7516 1.53014 23.6104 2.38696C24.4688 3.24378 25 4.42753 25 5.73529C25 7.04305 24.4688 8.22654 23.6104 9.08362C22.7519 9.94044 21.5659 10.4706 20.2556 10.4706C18.9454 10.4706 17.7596 9.94044 16.9009 9.08362C16.0421 8.2268 15.5112 7.04305 15.5112 5.73529C15.5112 4.42753 16.0424 3.24404 16.9009 2.38696C17.7593 1.52988 18.9454 1 20.2556 1ZM19.9802 3.61418C19.9802 3.46245 20.1033 3.33924 20.2556 3.33924C20.4079 3.33924 20.5311 3.46218 20.5311 3.61418V5.58435L21.8328 6.4081C21.9611 6.48944 21.9993 6.65904 21.9178 6.78704C21.8363 6.91505 21.6663 6.95318 21.5381 6.87184L20.1191 5.97369C20.0363 5.92623 19.9804 5.83716 19.9804 5.73502L19.9802 3.61418ZM22.4292 3.56565C22.9854 4.12086 23.3296 4.88781 23.3296 5.73502C23.3296 6.58224 22.9854 7.34919 22.4292 7.9044C21.8729 8.45961 21.1045 8.80308 20.2556 8.80308C19.4068 8.80308 18.6384 8.45961 18.0821 7.9044C17.5258 7.34919 17.1819 6.58224 17.1819 5.73502C17.1819 4.88781 17.5261 4.12086 18.0821 3.56565C18.6384 3.01044 19.4068 2.66697 20.2556 2.66697C21.1045 2.66697 21.8729 3.01044 22.4292 3.56565ZM20.2556 2.11735C21.2565 2.11735 22.1625 2.52243 22.8184 3.17684C23.4744 3.83152 23.88 4.7358 23.88 5.73476C23.88 6.73371 23.4744 7.63799 22.8184 8.29267C22.1625 8.94735 21.2565 9.35216 20.2556 9.35216C19.2548 9.35216 18.3487 8.94708 17.6928 8.29267C17.0369 7.63799 16.6313 6.73371 16.6313 5.73476C16.6313 4.7358 17.0371 3.83152 17.6928 3.17684C18.3487 2.52216 19.2548 2.11735 20.2556 2.11735ZM15.2906 12.1053C14.5146 12.6184 13.9725 13.3512 13.692 14.1661C13.6883 14.1824 13.6829 14.1979 13.6762 14.2131C13.6257 14.3659 13.5843 14.5213 13.5525 14.6787C13.3457 15.696 13.5279 16.7923 14.1478 17.7262C14.1959 17.7987 14.2461 17.8691 14.298 17.9377C14.3054 17.9462 14.3121 17.955 14.3185 17.9646C14.8393 18.639 15.5388 19.1089 16.3053 19.351C17.1763 19.6262 18.1336 19.6081 19.014 19.2638C19.1396 19.215 19.2791 19.2643 19.3477 19.3747L19.4789 19.5726C19.4936 19.5948 19.5158 19.6089 19.5396 19.6137C19.5641 19.6188 19.5909 19.6145 19.613 19.5996L20.5204 18.9995C20.5426 18.9849 20.5567 18.9627 20.5615 18.939C20.5666 18.9145 20.5623 18.8878 20.5474 18.8657L20.4117 18.6611C20.3371 18.5489 20.3563 18.4017 20.4507 18.3118C21.1079 17.6371 21.4956 16.7675 21.5809 15.864C21.6647 14.9739 21.4555 14.0498 20.922 13.2461C20.3018 12.3122 19.3622 11.7175 18.3437 11.5114C17.3244 11.305 16.226 11.4869 15.2903 12.1055L15.2906 12.1053ZM20.7758 21.0937L20.0307 19.9814L20.7053 19.5353L21.4507 20.6481L20.7758 21.0937ZM21.9985 20.9438L20.8271 21.7172L20.8245 21.7188C20.7996 21.7353 20.7838 21.7599 20.7785 21.7865C20.7732 21.8132 20.7774 21.842 20.7929 21.8665L20.7943 21.8689L22.4241 24.3199C22.4692 24.3879 22.5382 24.4314 22.6124 24.4463C22.6878 24.4615 22.7687 24.4484 22.8371 24.4034L23.6967 23.8356C23.7645 23.7906 23.8078 23.7226 23.8228 23.6487C23.838 23.574 23.8249 23.4938 23.7798 23.4258L22.1494 20.974C22.1329 20.9489 22.1077 20.9332 22.0808 20.9276C22.053 20.922 22.023 20.9268 21.9979 20.9433L21.9985 20.9438ZM19.5137 13.5496C20.0119 14.0469 20.32 14.7339 20.32 15.4928C20.32 16.2518 20.0117 16.9387 19.5137 17.436C19.0154 17.9334 18.3271 18.2409 17.5667 18.2409C16.8063 18.2409 16.118 17.9331 15.6197 17.436C15.1214 16.939 14.8134 16.2518 14.8134 15.4928C14.8134 14.7339 15.1214 14.0469 15.6197 13.5496C16.118 13.0522 16.8063 12.7448 17.5667 12.7448C18.3271 12.7448 19.0154 13.0525 19.5137 13.5496ZM17.5667 12.1949C18.4791 12.1949 19.3052 12.564 19.9032 13.1608C20.5012 13.7576 20.8709 14.5821 20.8709 15.4928C20.8709 16.4035 20.5012 17.228 19.9032 17.8249C19.3052 18.4217 18.4791 18.7907 17.5667 18.7907C16.6543 18.7907 15.8281 18.4217 15.2302 17.8249C14.6322 17.228 14.2624 16.4035 14.2624 15.4928C14.2624 14.5821 14.6322 13.7576 15.2302 13.1608C15.8281 12.564 16.6543 12.1949 17.5667 12.1949ZM11.7114 21.5063V14.3771H13.0585C13.0425 14.4413 13.0278 14.5061 13.0147 14.5712C12.7798 15.7259 12.9864 16.9696 13.6896 18.0289C13.7299 18.0897 13.7716 18.1494 13.8144 18.2075V21.5063H11.7114ZM7.10592 21.5063H9.20892V12.7557H7.10592V21.5063ZM2.50048 21.5063H4.60348V14.3768H2.50048V21.5063ZM1.32193 22.0559C1.1699 22.0559 1.04646 21.9329 1.04646 21.7809C1.04646 21.6289 1.16963 21.506 1.32193 21.506H1.94981V14.1016C1.94981 13.9498 2.07298 13.8266 2.22528 13.8266H4.87894C5.03097 13.8266 5.15441 13.9496 5.15441 14.1016V21.506H6.55525V12.4805C6.55525 12.3287 6.67842 12.2055 6.83072 12.2055H9.48439C9.63641 12.2055 9.75985 12.3285 9.75985 12.4805V21.506H11.1607V14.1018C11.1607 13.9501 11.2839 13.8269 11.4362 13.8269H13.2322C13.5645 12.9656 14.1585 12.1957 14.9873 11.6474C16.0485 10.9455 17.295 10.7394 18.4516 10.9738C19.6093 11.2082 20.6772 11.8831 21.3805 12.9426C21.9856 13.8541 22.2229 14.9024 22.1275 15.9128C22.0372 16.872 21.6476 17.7966 20.9893 18.5377L21.0056 18.5625C21.1037 18.7102 21.1323 18.8843 21.0994 19.0459C21.0948 19.0683 21.0892 19.0905 21.0823 19.1123L21.9373 20.3886C22.0209 20.3732 22.1064 20.3742 22.189 20.391C22.3549 20.4246 22.508 20.5209 22.6082 20.6713L24.2385 23.1231C24.3668 23.3164 24.4042 23.5444 24.3612 23.7559C24.3179 23.9684 24.1942 24.1644 24.0005 24.2927L23.1409 24.8605C22.947 24.9885 22.718 25.0261 22.5056 24.9829C22.2921 24.9397 22.0954 24.8159 21.9667 24.6223L20.3379 22.1735L20.3366 22.1711C20.2369 22.0207 20.2078 21.8436 20.2412 21.6791C20.2588 21.5924 20.2938 21.5092 20.3446 21.4351L19.4899 20.159C19.4704 20.1569 19.4511 20.154 19.4322 20.15C19.2692 20.1169 19.119 20.0225 19.021 19.8748L19.0049 19.8505C18.0639 20.1668 17.0593 20.1649 16.1402 19.8745C15.4883 19.6684 14.8788 19.3174 14.3656 18.8318V21.506H14.9934C15.1455 21.506 15.2689 21.6289 15.2689 21.7809C15.2689 21.9329 15.1457 22.0559 14.9934 22.0559H1.32193ZM13.9044 9.74497L11.4102 11.7509C11.3149 11.8274 11.1839 11.8301 11.087 11.7661L8.14206 10.0455L3.6662 12.0893C3.60635 12.1167 3.54142 12.1205 3.48237 12.105L1.2049 11.4997C1.05822 11.4613 0.970583 11.3111 1.00906 11.1647C1.04753 11.0183 1.19796 10.9309 1.34464 10.9693L3.52806 11.5501L8.04347 9.48816C8.12202 9.45243 8.21607 9.45429 8.29622 9.50096L11.2131 11.2053L13.5587 9.31883L12.7983 9.22522C12.6473 9.20682 12.5399 9.06975 12.5583 8.91935C12.5768 8.76868 12.7141 8.66148 12.8648 8.67988L14.2699 8.85295C14.4209 8.87135 14.5283 9.00842 14.5098 9.15882L14.5077 9.17269L14.3816 10.5463C14.368 10.697 14.2346 10.8079 14.0837 10.7943C13.9327 10.7807 13.8216 10.6477 13.8352 10.497L13.9041 9.7447L13.9044 9.74497Z" fill="#143DBD" stroke="url(#paint0_linear_549_282)" stroke-width="0.3"/>
<defs>
<linearGradient id="paint0_linear_549_282" x1="15.5" y1="-0.5" x2="15.5" y2="25" gradientUnits="userSpaceOnUse">
<stop stop-color="#1534D2"/>
<stop offset="1" stop-color="#0E4A98"/>
</linearGradient>
</defs>
</svg>
