<svg width="978" height="294" viewBox="0 0 978 294" fill="none" xmlns="http://www.w3.org/2000/svg">
<path d="M314.215 24.1149C249.31 37.1282 195.329 47.7316 194.365 47.4103C193.561 47.089 186.332 38.4134 178.299 28.1313L164 9.495H154.039H143.918L148.095 18.6525C150.344 23.7936 157.735 40.502 164.322 55.7645C171.069 71.027 177.335 83.237 178.299 82.9157C179.263 82.5944 237.582 66.5286 307.789 47.2496C377.997 27.9707 436.155 11.5836 436.797 11.1016C437.922 10.1376 433.906 -0.465794 432.62 0.0161795C432.46 0.176837 379.121 10.9409 314.215 24.1149Z" fill="white"/>
<path d="M0.933594 34.3971V59.2991H41.9014H82.8691V174.973V290.646H112.591H142.313V150.071V9.49511H71.6231H0.933594V34.3971Z" fill="white"/>
<path d="M863.666 74.5616V110.71H849.207H834.748V133.202V155.694H849.207H863.666V191.681C863.666 222.528 864.148 229.114 866.719 237.469C874.591 262.692 897.244 283.417 922.789 288.879C927.448 289.843 941.746 290.646 954.438 290.646H977.734V267.512V244.377L954.92 243.734C933.713 243.252 931.464 242.931 926.484 239.397C916.523 232.167 916.684 234.256 916.684 131.595V38.4135H890.175H863.666V74.5616Z" fill="white"/>
<path d="M688.87 89.8245C647.26 101.071 616.253 136.576 611.594 178.347C602.597 259.319 686.46 318.923 760.042 283.578C779.16 274.26 803.259 252.25 797.796 248.876C796.511 248.073 786.068 243.413 774.34 238.272L752.973 229.115L746.707 234.738C738.353 242.289 730.641 244.859 715.861 244.859C701.241 244.859 691.441 240.682 680.516 229.597C653.204 202.446 660.273 156.176 694.172 139.468C705.418 134.005 724.536 134.005 735.461 139.307C744.94 143.966 754.097 153.124 759.881 163.566L764.219 171.76H726.464C705.579 171.76 688.549 172.242 688.549 172.724C688.549 173.367 694.011 182.845 700.92 193.61L713.13 213.531H765.022H816.915L818.039 204.534C820.77 181.721 815.469 156.337 803.901 136.897C797.154 125.33 779.963 108.139 768.396 101.392C752.491 91.7524 738.192 87.7359 718.271 87.0933C704.454 86.772 698.028 87.254 688.87 89.8245Z" fill="white"/>
<path d="M302.65 90.7858C289.958 93.8383 278.23 99.9433 269.072 108.619L261.361 115.848L260.879 103.96L260.397 92.2317L231.96 91.7497L203.363 91.4284V192.643V293.857L231.96 293.536L260.397 293.054L261.2 235.217C262.003 178.505 262.003 177.22 265.699 170.151C271.322 159.387 282.728 148.462 293.974 143.482C306.827 137.698 324.981 137.216 338.155 142.518C342.975 144.446 347.313 145.57 347.795 145.249C348.277 144.767 354.221 134.485 360.969 122.275L373.5 100.265L365.949 96.8908C347.795 88.6972 321.447 86.1267 302.65 90.7858Z" fill="white"/>
<path d="M386.992 158.425C387.474 218.19 387.956 228.472 390.366 236.826C399.845 268.797 417.678 285.666 448.685 291.61C477.603 297.073 505.879 291.932 522.909 278.276L526.765 275.062L521.945 266.387C519.214 261.567 514.876 253.695 511.984 248.715L507.004 239.557L498.489 242.931C479.853 250.16 456.718 245.662 448.364 232.97C442.259 223.813 441.134 210.478 441.134 147.982V89.8239H413.661H386.35L386.992 158.425Z" fill="white"/>
<path d="M535.924 191.039V292.254L563.718 291.933L591.351 291.451L591.833 190.557L592.154 89.8249H564.039H535.924V191.039Z" fill="white"/>
<path d="M929.536 122.277C933.071 128.703 938.694 138.824 942.068 144.769L948.012 155.693H962.953H977.734V133.201V110.709H950.422H922.949L929.536 122.277Z" fill="white"/>
</svg>
